<svg width="19" height="19" viewBox="0 0 19 19" fill="none" xmlns="http://www.w3.org/2000/svg">
<path d="M1.39686 15.0963C1.43515 14.7517 1.45429 14.5794 1.50642 14.4184C1.55268 14.2755 1.61802 14.1396 1.70069 14.0142C1.79388 13.8729 1.91645 13.7503 2.1616 13.5052L13.1669 2.49992C14.0873 1.57945 15.5797 1.57945 16.5002 2.49993C17.4207 3.4204 17.4207 4.91279 16.5002 5.83326L5.49493 16.8385C5.24978 17.0836 5.12721 17.2062 4.9859 17.2994C4.86054 17.3821 4.72457 17.4474 4.5817 17.4937C4.42067 17.5458 4.24838 17.5649 3.9038 17.6032L1.0835 17.9166L1.39686 15.0963Z" stroke="#344054" stroke-width="1.67" stroke-linecap="round" stroke-linejoin="round"/>
</svg>
